<?xml version="1.0" encoding="UTF-8"?>
<svg id="Layer_1" xmlns="http://www.w3.org/2000/svg" version="1.1" viewBox="0 0 792 612">
  <!-- Generator: Adobe Illustrator 29.1.0, SVG Export Plug-In . SVG Version: 2.1.0 Build 142)  -->
  <defs>
    <style>
      .st0 {
        fill: #fff;
      }
    </style>
  </defs>
  <g>
    <path class="st0" d="M150.3,236.2v46.9h136.1c41,0,54.5,10.6,54.5,51.6v30c0,41-13.5,51.6-54.5,51.6h-134.8c-41,0-54.5-10.6-54.5-51.6v-5.9l44.8-9.3v25.8h154.3v-49.9h-136.1c-41,0-54.1-10.6-54.1-51.6v-24.1c0-41,13.1-51.6,54.1-51.6h123.8c38.9,0,54.1,10.1,54.1,47.8v4.6l-44.8,10.6v-24.9h-142.8Z"/>
    <path class="st0" d="M513.6,418.8h-51.9v-183.4h-102.5v-39.8h257.4v39.8h-103v183.4Z"/>
  </g>
  <path class="st0" d="M748.9,297.3c0,.4-.1.7-.4,1-.3.3-.7.5-1.4.7-.7.2-1.5.3-2.6.4-1.1.1-2.5.2-4.2.2s-3,0-4.1-.2c-1.1-.1-2-.3-2.6-.4-.6-.2-1.1-.4-1.4-.7-.3-.3-.4-.6-.4-1v-57h-.1l-25.6,57c-.2.5-.5.9-.9,1.2-.4.3-1,.6-1.7.7-.7.2-1.6.3-2.7.4-1.1,0-2.4,0-4,0s-2.9,0-4-.1c-1.1,0-2-.2-2.7-.4-.7-.2-1.3-.4-1.7-.7-.4-.3-.7-.6-.8-1l-24.7-57h-.1v57c0,.4-.1.7-.4,1-.3.3-.7.5-1.4.7-.7.2-1.6.3-2.6.4-1.1.1-2.4.2-4.1.2s-3,0-4.1-.2c-1.1-.1-2-.3-2.6-.4-.7-.2-1.1-.4-1.4-.7-.3-.3-.4-.6-.4-1v-62.4c0-1.8.6-3.2,1.8-4.2,1.2-1,2.9-1.5,4.9-1.5h11.7c2.1,0,3.9.1,5.4.4,1.5.3,2.8.7,3.9,1.4,1.1.6,2,1.5,2.7,2.5s1.4,2.3,1.9,3.8l19.1,41.8h.3l19.8-41.6c.6-1.5,1.2-2.8,1.9-3.8.7-1,1.5-1.9,2.5-2.5.9-.7,2-1.1,3.3-1.4,1.3-.3,2.8-.4,4.4-.4h12.1c1.2,0,2.3.1,3.2.4.9.3,1.6.6,2.2,1.1.6.5,1,1.1,1.3,1.8s.4,1.5.4,2.4v62.4Z"/>
  <path class="st0" d="M599.3,486.8H141.3c-60.1,0-109-39.4-109-87.9v-185.9c0-48.4,48.9-87.9,109-87.9h458c60.1,0,109,39.4,109,87.9h-21.7c0-17.1-8.8-33.4-24.7-45.8-16.7-13.1-38.9-20.3-62.6-20.3H141.3c-23.7,0-45.9,7.2-62.6,20.3-15.9,12.5-24.7,28.8-24.7,45.8v185.9c0,17.1,8.8,33.4,24.7,45.8,16.7,13.1,38.9,20.3,62.6,20.3h458c23.7,0,45.9-7.2,62.6-20.3,15.9-12.5,24.7-28.8,24.7-45.8v-83.2h21.7v83.2c0,48.4-48.9,87.9-109,87.9Z"/>
</svg>